<svg width="38" height="36" viewBox="0 0 38 36" fill="none" xmlns="http://www.w3.org/2000/svg">
<path d="M35.5847 17.8876C35.5847 8.12395 27.6697 0.208984 17.9061 0.208984C8.14251 0.208984 0.227539 8.12395 0.227539 17.8876C0.227539 26.7114 6.69234 34.0251 15.1438 35.3513V22.9978H10.6551V17.8876H15.1438V13.9927C15.1438 9.56205 17.7831 7.11468 21.8213 7.11468C23.7555 7.11468 25.7786 7.45996 25.7786 7.45996V11.8105H23.5493C21.3533 11.8105 20.6684 13.1733 20.6684 14.5713V17.8876H25.5714L24.7876 22.9978H20.6684V35.3513C29.1199 34.0251 35.5847 26.7114 35.5847 17.8876Z" fill="#525252"/>
<path d="M24.7868 22.9973L25.5706 17.8871H20.6676V14.5709C20.6676 13.1729 21.3524 11.8101 23.5485 11.8101H25.7778V7.45954C25.7778 7.45954 23.7547 7.11426 21.8204 7.11426C17.7823 7.11426 15.143 9.56163 15.143 13.9923V17.8871H10.6543V22.9973H15.143V35.3509C16.9734 35.6373 18.8372 35.6373 20.6676 35.3509V22.9973H24.7868Z" fill="white"/>
</svg>
