<svg width="38" height="36" viewBox="0 0 38 36" fill="none" xmlns="http://www.w3.org/2000/svg">
<circle cx="18.1504" cy="17.5352" r="13.125" fill="#D9D9D9"/>
<path d="M17.8172 0.208984C8.05356 0.208984 0.138672 8.12387 0.138672 17.8875C0.138672 27.6512 8.05356 35.5661 17.8172 35.5661C27.5809 35.5661 35.4958 27.6512 35.4958 17.8875C35.4957 8.12387 27.5807 0.208984 17.8172 0.208984ZM13.1005 26.4343H9.21904V13.8943H13.1005V26.4343ZM11.1413 12.252C9.87364 12.252 8.84598 11.216 8.84598 9.9382C8.84598 8.66024 9.87378 7.62428 11.1413 7.62428C12.4088 7.62428 13.4365 8.66024 13.4365 9.9382C13.4365 11.2161 12.4089 12.252 11.1413 12.252ZM27.6465 26.4343H23.7838V19.8518C23.7838 18.0464 23.098 17.0387 21.6705 17.0387C20.1168 17.0387 19.3051 18.0883 19.3051 19.8518V26.4343H15.5823V13.8943H19.3051V15.5832C19.3051 15.5832 20.4249 13.5117 23.084 13.5117C25.743 13.5117 27.6465 15.1354 27.6465 18.4941L27.6465 26.4343Z" fill="#525252"/>
</svg>
