<svg width="39" height="36" viewBox="0 0 39 36" fill="none" xmlns="http://www.w3.org/2000/svg">
<circle cx="19.4261" cy="17.7025" r="13.2523" fill="#D9D9D9"/>
<path d="M25.6252 12.5757C25.4703 12.1745 25.2331 11.8103 24.9289 11.5063C24.6246 11.2024 24.2601 10.9656 23.8588 10.8111C23.3062 10.6065 22.7225 10.4983 22.1333 10.4913C21.1534 10.4467 20.8596 10.4355 18.3773 10.4355C15.8951 10.4355 15.6013 10.4467 14.6214 10.4913C14.0315 10.4981 13.4472 10.6063 12.894 10.8111C12.4929 10.966 12.1286 11.2032 11.8247 11.5075C11.5208 11.8117 11.284 12.1762 11.1295 12.5775C10.9248 13.1301 10.8167 13.7138 10.8097 14.303C10.7651 15.2829 10.7539 15.5767 10.7539 18.059C10.7539 20.5413 10.7651 20.835 10.8097 21.8149C10.8164 22.4048 10.9246 22.9891 11.1295 23.5423C11.2844 23.9434 11.5216 24.3077 11.8258 24.6116C12.1301 24.9155 12.4946 25.1524 12.8959 25.3068C13.4485 25.5115 14.0322 25.6197 14.6214 25.6266C15.6013 25.6713 15.8951 25.6824 18.3773 25.6824C20.8596 25.6824 21.1534 25.6713 22.1333 25.6266C22.7231 25.6199 23.3075 25.5117 23.8606 25.3068C24.2618 25.1519 24.6261 24.9147 24.93 24.6105C25.2339 24.3063 25.4707 23.9417 25.6252 23.5404C25.8299 22.9878 25.938 22.4042 25.945 21.8149C25.9896 20.835 26.0008 20.5413 26.0008 18.059C26.0008 15.5767 25.9896 15.2829 25.945 14.303C25.9382 13.7132 25.8301 13.1289 25.6252 12.5757ZM18.3773 22.8339C17.433 22.8339 16.5098 22.5538 15.7246 22.0291C14.9393 21.5045 14.3273 20.7587 13.9659 19.8862C13.6045 19.0138 13.51 18.0537 13.6942 17.1275C13.8785 16.2012 14.3332 15.3504 15.001 14.6826C15.6688 14.0149 16.5196 13.5601 17.4458 13.3759C18.372 13.1916 19.3321 13.2862 20.2046 13.6476C21.0771 14.009 21.8228 14.621 22.3475 15.4062C22.8722 16.1914 23.1522 17.1146 23.1522 18.059C23.1522 19.3254 22.6492 20.5399 21.7537 21.4353C20.8582 22.3308 19.6437 22.8339 18.3773 22.8339ZM23.34 14.2119C23.1194 14.2119 22.9037 14.1465 22.7202 14.0239C22.5367 13.9013 22.3938 13.7271 22.3093 13.5232C22.2249 13.3194 22.2028 13.0951 22.2458 12.8787C22.2889 12.6623 22.3951 12.4635 22.5511 12.3074C22.7072 12.1514 22.906 12.0452 23.1224 12.0021C23.3388 11.9591 23.5631 11.9812 23.7669 12.0656C23.9708 12.15 24.145 12.293 24.2676 12.4765C24.3902 12.66 24.4556 12.8757 24.4556 13.0963C24.4556 13.3922 24.3381 13.676 24.1289 13.8852C23.9197 14.0944 23.6359 14.2119 23.34 14.2119Z" fill="#525252"/>
<path d="M18.3769 21.1591C20.0888 21.1591 21.4765 19.7714 21.4765 18.0595C21.4765 16.3477 20.0888 14.96 18.3769 14.96C16.6651 14.96 15.2773 16.3477 15.2773 18.0595C15.2773 19.7714 16.6651 21.1591 18.3769 21.1591Z" fill="#525252"/>
<path d="M18.3774 0.208984C14.847 0.208984 11.3958 1.25587 8.46042 3.21725C5.52501 5.17864 3.23713 7.96642 1.8861 11.2281C0.535078 14.4897 0.181588 18.0788 0.870335 21.5413C1.55908 25.0039 3.25913 28.1845 5.7555 30.6808C8.25186 33.1772 11.4324 34.8773 14.895 35.566C18.3575 36.2547 21.9466 35.9013 25.2083 34.5502C28.4699 33.1992 31.2577 30.9113 33.2191 27.9759C35.1805 25.0405 36.2274 21.5894 36.2274 18.059C36.2274 13.3249 34.3467 8.78465 30.9992 5.43713C27.6517 2.0896 23.1115 0.208984 18.3774 0.208984ZM27.6184 21.893C27.6025 22.6639 27.456 23.4265 27.1852 24.1484C26.9464 24.7659 26.5813 25.3267 26.1131 25.7948C25.645 26.2629 25.0843 26.6281 24.4668 26.8668C23.7449 27.1376 22.9823 27.2841 22.2114 27.3001C21.2185 27.3447 20.9024 27.3559 18.3774 27.3559C15.8523 27.3559 15.5362 27.3447 14.5433 27.3001C13.7724 27.2841 13.0098 27.1376 12.2879 26.8668C11.6704 26.6281 11.1097 26.2629 10.6416 25.7948C10.1734 25.3267 9.80828 24.7659 9.56949 24.1484C9.2987 23.4265 9.15221 22.6639 9.13626 21.893C9.09163 20.9001 9.08048 20.584 9.08048 18.059C9.08048 15.534 9.09163 15.2179 9.13626 14.225C9.15221 13.4541 9.2987 12.6915 9.56949 11.9695C9.80828 11.3521 10.1734 10.7913 10.6416 10.3232C11.1097 9.85507 11.6704 9.48991 12.2879 9.25112C13.0098 8.98033 13.7724 8.83384 14.5433 8.81789C15.5362 8.77327 15.8523 8.76211 18.3774 8.76211C20.9024 8.76211 21.2185 8.77327 22.2114 8.81789C22.9823 8.83384 23.7449 8.98033 24.4668 9.25112C25.0843 9.48991 25.645 9.85507 26.1131 10.3232C26.5813 10.7913 26.9464 11.3521 27.1852 11.9695C27.456 12.6915 27.6025 13.4541 27.6184 14.225C27.6631 15.2179 27.6742 15.534 27.6742 18.059C27.6742 20.584 27.6631 20.9001 27.6184 21.893Z" fill="#525252"/>
</svg>
