<svg width="32" height="32" viewBox="0 0 32 32" fill="none" xmlns="http://www.w3.org/2000/svg">
<path d="M18.7393 3.03516C16.2894 3.03791 13.9408 4.01231 12.2085 5.7446C10.4762 7.47688 9.50177 9.82558 9.49902 12.2754C9.49902 16.035 12.2284 19.1571 15.1194 22.4616C16.0342 23.5081 16.9813 24.5903 17.8245 25.6853C17.9324 25.8253 18.071 25.9386 18.2296 26.0166C18.3882 26.0946 18.5625 26.1352 18.7393 26.1352C18.916 26.1352 19.0904 26.0946 19.249 26.0166C19.4076 25.9386 19.5461 25.8253 19.654 25.6853C20.4972 24.5903 21.4443 23.5081 22.3591 22.4616C25.2502 19.1571 27.9795 16.035 27.9795 12.2754C27.9768 9.82558 27.0023 7.47688 25.2701 5.7446C23.5378 4.01231 21.1891 3.03791 18.7393 3.03516ZM18.7393 15.7405C18.0539 15.7405 17.384 15.5373 16.8142 15.1565C16.2443 14.7758 15.8002 14.2346 15.5379 13.6014C15.2757 12.9683 15.2071 12.2716 15.3408 11.5994C15.4745 10.9272 15.8045 10.3098 16.2891 9.82521C16.7737 9.34061 17.3911 9.01059 18.0633 8.87689C18.7354 8.74319 19.4321 8.81181 20.0653 9.07407C20.6985 9.33633 21.2396 9.78046 21.6204 10.3503C22.0011 10.9201 22.2044 11.5901 22.2044 12.2754C22.2044 13.1944 21.8393 14.0758 21.1895 14.7256C20.5396 15.3754 19.6583 15.7405 18.7393 15.7405Z" fill="white"/>
</svg>
