<svg width="53" height="54" viewBox="0 0 53 54" fill="none" xmlns="http://www.w3.org/2000/svg">
<circle cx="26.8105" cy="27.04" r="26.1035" fill="#BBBBBB"/>
<g clip-path="url(#clip0_318_14605)">
<path fill-rule="evenodd" clip-rule="evenodd" d="M22.7052 36.1383C23.0678 36.484 23.6544 36.484 24.0162 36.1383L31.6842 28.812C31.8559 28.6505 31.9926 28.4561 32.0859 28.2407C32.1793 28.0253 32.2275 27.7933 32.2275 27.5588C32.2275 27.3244 32.1793 27.0924 32.0859 26.877C31.9926 26.6616 31.8559 26.4672 31.6842 26.3057L23.9606 18.9253C23.7854 18.7604 23.5532 18.6677 23.3114 18.666C23.0696 18.6644 22.8362 18.7539 22.6586 18.9165C22.5706 18.9967 22.5003 19.094 22.4518 19.2023C22.4034 19.3106 22.3779 19.4276 22.377 19.546C22.3761 19.6644 22.3997 19.7818 22.4464 19.8908C22.4932 19.9998 22.5621 20.0982 22.6488 20.1798L29.7177 26.9325C29.8036 27.0133 29.872 27.1105 29.9188 27.2182C29.9655 27.326 29.9896 27.442 29.9896 27.5593C29.9896 27.6766 29.9655 27.7926 29.9188 27.9003C29.872 28.0081 29.8036 28.1053 29.7177 28.1861L22.7052 34.8856C22.6193 34.9663 22.5509 35.0634 22.5042 35.1711C22.4575 35.2788 22.4334 35.3947 22.4334 35.5119C22.4334 35.6291 22.4575 35.7451 22.5042 35.8528C22.5509 35.9605 22.6193 36.0576 22.7052 36.1383Z" fill="white"/>
</g>
<defs>
<clipPath id="clip0_318_14605">
<rect width="9.85037" height="17.7307" fill="white" transform="translate(22.3779 18.667)"/>
</clipPath>
</defs>
</svg>
