<svg width="38" height="36" viewBox="0 0 38 36" fill="none" xmlns="http://www.w3.org/2000/svg">
<path d="M17.7762 35.5661C27.5398 35.5661 35.4548 27.6512 35.4548 17.8876C35.4548 8.12395 27.5398 0.208984 17.7762 0.208984C8.01262 0.208984 0.0976562 8.12395 0.0976562 17.8876C0.0976562 27.6512 8.01262 35.5661 17.7762 35.5661Z" fill="#525252"/>
<path d="M29.1109 10.8555C28.277 11.2255 27.3814 11.4757 26.4397 11.5881C27.4008 11.0126 28.137 10.1006 28.4847 9.01525C27.5717 9.55748 26.5726 9.93921 25.5307 10.1439C24.6828 9.24006 23.4737 8.67578 22.136 8.67578C19.5684 8.67578 17.486 10.7573 17.486 13.3264C17.486 13.6904 17.527 14.0456 17.6058 14.3865C13.7406 14.1923 10.3139 12.3408 8.02016 9.52747C7.61964 10.2146 7.39039 11.0134 7.39039 11.8658C7.39039 13.4791 8.21153 14.9025 9.45923 15.7363C8.72061 15.7134 7.9982 15.514 7.35239 15.1548V15.2136C7.35239 17.4671 8.95523 19.3461 11.0829 19.7735C10.692 19.8806 10.2819 19.9365 9.85753 19.9365C9.5575 19.9365 9.26642 19.9081 8.98206 19.8546C9.57389 21.7017 11.2914 23.0461 13.3259 23.0841C11.7343 24.3319 9.7287 25.0756 7.55043 25.0756C7.17525 25.0756 6.80445 25.0532 6.44043 25.0093C8.49889 26.3293 10.943 27.0998 13.5694 27.0998C22.1233 27.0998 26.8015 20.0132 26.8015 13.8677C26.8015 13.6659 26.7971 13.4657 26.7874 13.2661C27.6988 12.6069 28.4856 11.7906 29.1109 10.8555Z" fill="white"/>
</svg>
